<svg id="fluteIcon" xmlns="http://www.w3.org/2000/svg" width="68.04" height="24.06" viewBox="0 0 68.04 24.06">
  <defs>
    <style>
      .cls-1 {
        fill: #e62527;
      }
    </style>
  </defs>
  <path id="mouth" class="cls-1" d="M26.77,26.93a1.54,1.54,0,0,1,.56.05l4.74,1.4c.9.27,1.8.56,2.7.81.22.07.26.16.2.35-.45,1.46-.89,2.93-1.33,4.39,0,0,0,.06-.07.14l-7.63-2.29a1.45,1.45,0,0,1-.62-.37c-.54-.57-1.84-1.8-1.77-2,.42-1.07.49-1.1.92-2.12C24.57,27.09,26.14,27,26.77,26.93Z" transform="translate(-23.55 -26.93)"/>
  <path id="fluteBody" class="cls-1" d="M91.59,46.19,90.15,51l-.93-.25-5.91-1.79-9-2.71-6.87-2L58.08,41.4l-8.63-2.59-5.7-1.72-7.91-2.35c-.2-.05-.4-.12-.63-.19.17-.59.33-1.2.52-1.79.26-.88.55-1.75.82-2.62.08-.25.17-.31.45-.23,2.79.84,5.59,1.66,8.38,2.48l6.13,1.83c2.78.82,5.55,1.66,8.33,2.49l6.1,1.81,9,2.71,7.07,2.12,9,2.69Zm-25-5a.84.84,0,0,0-.88-.9.82.82,0,0,0-.7.88.88.88,0,0,0,.79.81A.76.76,0,0,0,66.61,41.17ZM52.14,37.32q0,.75.9.75c.34,0,.72-.46.71-.88a.86.86,0,0,0-.89-.75A.79.79,0,0,0,52.14,37.32ZM79.57,45a.8.8,0,0,0-.81-.8,1,1,0,0,0-.84.92.74.74,0,0,0,.79.7A.85.85,0,0,0,79.57,45ZM46.43,34.53a.8.8,0,0,0-.81.85.85.85,0,0,0,.83.76,1,1,0,0,0,.81-.87A.72.72,0,0,0,46.43,34.53ZM73.12,43a.79.79,0,0,0-.78-.78.85.85,0,0,0-.86.82.83.83,0,0,0,.77.81A.92.92,0,0,0,73.12,43ZM59.48,40a.81.81,0,0,0,.71-.81.85.85,0,0,0-.9-.82.8.8,0,0,0-.72.81A.89.89,0,0,0,59.48,40Z" transform="translate(-23.55 -26.93)"/>
</svg>
