<svg id="sitarIcon" xmlns="http://www.w3.org/2000/svg" width="53.54" height="53.54" viewBox="0 0 53.54 53.54">
  <defs>
    <style>
      .cls-1 {
        fill: #ee2f2e;
      }

      .cls-2 {
        fill: #fff;
        stroke: #000;
        stroke-miterlimit: 10;
        stroke-width: 0.25px;
      }
    </style>
  </defs>
  <g id="theSitar">
    <path class="cls-1" d="M84.22,25.63l-4-4c-.67-.67-1-.68-1.69,0L76,24.12c-.58-.61-1.12-1.17-1.67-1.72-.15-.15-.34-.36-.5-.35a1.44,1.44,0,0,0-.88.31.69.69,0,0,0,.07,1c.62.6,1.26,1.19,1.93,1.82l-1.08,1.06-.3.26-.43-.4c-.48-.48-1-1-1.44-1.43a.8.8,0,0,0-1.11,0,.81.81,0,0,0-.07,1.11,4,4,0,0,0,.4.42l1.57,1.48c-.56.55-1,1-1.47,1.44a1.84,1.84,0,0,0-.41.78c-.12.61-.13,1.24-.26,1.84a1.89,1.89,0,0,1-.44.91c-.79.79-1.62,1.54-2.44,2.31l-.55.49c-.63-.66-1.22-1.27-1.82-1.87a1.26,1.26,0,0,0-.52-.35.75.75,0,0,0-.91.38.77.77,0,0,0,.18,1l1.94,1.91L64,38.13l-1.79-1.82A.85.85,0,0,0,61,36.2c-.36.36-.32.82.11,1.26s1.17,1.14,1.77,1.73l-.16.2c-3,2.79-5.91,5.59-8.89,8.35a6.7,6.7,0,0,1-6.2,1.77,15.79,15.79,0,0,0-5.69-.32A12.8,12.8,0,1,0,56.59,60c-.13-.83-.35-1.64-.44-2.46a7.38,7.38,0,0,1,2.21-6.09q7.26-7.65,14.45-15.37a2.12,2.12,0,0,1,1.54-.79c.4,0,.81-.09,1.21-.12a1.62,1.62,0,0,0,1.17-.56c.39-.45.81-.89,1.26-1.38L79.64,35c.44.44.9.48,1.26.13s.35-.83-.12-1.3l-1.53-1.52,1.25-1.37c.56.57,1.09,1.11,1.64,1.64A.82.82,0,1,0,83.3,31.4c-.54-.55-1.09-1.09-1.67-1.67l2.57-2.57C84.78,26.58,84.79,26.2,84.22,25.63ZM41.47,67.89l-4-4,.94-.78C39.66,64.34,41,65.68,42.34,67Zm5.73-4.33a5.2,5.2,0,1,1,5.63-5.18A5.42,5.42,0,0,1,47.2,63.56ZM58.42,49.07l-1.76-1.74,1.62-1.51c.53.57,1,1.12,1.58,1.73Zm2.74-2.91L59.57,44.6l1.55-1.47,1.44,1.53Zm2.67-2.84L62.44,41.9,64,40.41l1.29,1.33Zm2.76-2.93-1.23-1.24,1.52-1.44L68,38.9Zm2.61-2.78c-.36-.37-.68-.71-1-1.08L69.75,35l1,1C70.2,36.53,69.7,37.06,69.2,37.61Z" transform="translate(-31.1 -21.09)"/>
  </g>
  <line id="string1" class="cls-2" x1="40.78" y1="10.67" x2="7.58" y2="42.55"/>
  <line id="string2" class="cls-2" x1="9.25" y1="43.94" x2="41.82" y2="11.5"/>
  <line id="string3" class="cls-2" x1="10.94" y1="45.64" x2="42.68" y2="12.5"/>
</svg>
