<svg id="voiceIcon" xmlns="http://www.w3.org/2000/svg" width="65.11" height="50.68" viewBox="0 0 65.11 50.68">
  <defs>
    <style>
      .cls-1 {
        fill: #e82125;
      }
    </style>
  </defs>
  <g id="person">
    <path class="cls-1" d="M69.18,50.83c1.86-.7,2.91-1.63,2.67-3.53,0-.37.44-.95.83-1.2,2-1.24,2.36-2.31,1.42-4.45a5.43,5.43,0,0,0-.61-1.14A12.9,12.9,0,0,1,71,31.78c.24-5.3-2.49-9.59-6.49-13-7-5.84-19.7-5.74-26.09.12-7.16,6.56-8.88,18.59-3.77,26.86.29.53,1.31,1.31,1.79,1,.76-.34.15-1.39-.09-1.86a21.38,21.38,0,0,1-2.68-11.19C34,26.9,38.43,18.61,46.6,17c8.45-1.7,18.39,1.08,21.71,10.86.61,1.79.38,3.86.65,5.79a26.44,26.44,0,0,0,1,4.78,15,15,0,0,0,1.9,3.17c.88,1.32,1.15,2.33-.72,3.14a2.56,2.56,0,0,0-1.27,2c.13,1.32-.35,1.79-1.46,2.27-1.79.77-1.92,1.93-.56,3.28.34.34.72.66.86.79-.21,1.52-.44,2.82-.54,4.12s-.66,2.24-2.1,2.33c-1.72.11-3.45.16-5.17.27-2.69.16-4.37,1.68-4.51,4.21,0,.53-.11,1,1,1.16a.83.83,0,0,0,1-.81c.13-2.18,1.58-2.59,3.3-2.67,1.36-.06,2.72,0,4.08-.05,2.87-.16,4.25-1.63,4.34-4.46,0-.6-.09-1.38.23-1.78C71.74,53.58,71,52.24,69.18,50.83Z" transform="translate(-31.65 -14.5)"/>
  </g>
  <g id="note">
    <path id="beamNote" class="cls-1" d="M80.89,47.11c.06-.22.09-.44.16-.65a3.18,3.18,0,0,1,2.65-2.2,4.79,4.79,0,0,1,2.31.27l.58.21v-5c0-2.38,0-4.77,0-7.15a.16.16,0,0,1,.14-.19l5.6-1.84,4.29-1.4.1,0V43.65c0,.3,0,.6.05.91a1.31,1.31,0,0,1-.12.58,4.19,4.19,0,0,1-1.29,1.74,3.54,3.54,0,0,1-1.71.7,3.83,3.83,0,0,1-1.84-.12,3,3,0,0,1-2.13-2.58,2.22,2.22,0,0,1,1-2.16,4.07,4.07,0,0,1,1.71-.66A10.57,10.57,0,0,1,95.18,42h.09l.09-8.86-.29.08-5,1.5-2.06.62c-.09,0-.12.06-.12.16,0,1.93,0,3.86,0,5.79l0,4.17a6,6,0,0,0,0,.85A2.54,2.54,0,0,1,87.46,48a4.53,4.53,0,0,1-2,1.84,3.66,3.66,0,0,1-1.26.32l-.1,0h-.63a3.85,3.85,0,0,1-.47-.08,2.7,2.7,0,0,1-1.78-1.48,3.94,3.94,0,0,1-.37-1Z" transform="translate(-31.65 -14.5)"/>
  </g>
</svg>
